<?xml version="1.0" standalone="no"?>
<!DOCTYPE svg PUBLIC "-//W3C//DTD SVG 20010904//EN"
 "http://www.w3.org/TR/2001/REC-SVG-20010904/DTD/svg10.dtd">
<svg version="1.0" xmlns="http://www.w3.org/2000/svg"
 width="256.000000pt" height="256.000000pt" viewBox="0 0 256.000000 256.000000"
 preserveAspectRatio="xMidYMid meet">
<metadata>
Created by potrace 1.11, written by Peter Selinger 2001-2013
</metadata>
<g transform="translate(0.000000,256.000000) scale(0.100000,-0.100000)"
fill="#000000" stroke="none">
<path d="M0 1280 l0 -1280 1280 0 1280 0 0 1280 0 1280 -1280 0 -1280 0 0
-1280z m557 309 c69 -26 98 -90 69 -148 -13 -23 -23 -31 -44 -31 -48 0 -58 14
-33 45 28 37 27 71 -4 91 -74 48 -142 -84 -82 -162 12 -16 45 -53 74 -82 65
-66 81 -112 63 -190 -16 -70 -61 -116 -136 -138 -137 -40 -244 33 -232 158 4
38 12 57 35 79 37 38 95 49 123 24 31 -28 26 -55 -10 -55 -40 0 -70 -31 -70
-72 1 -107 145 -118 180 -13 19 57 4 99 -61 170 -86 95 -107 146 -89 215 24
88 131 142 217 109z m1572 -43 c10 -12 8 -36 -8 -110 -27 -122 -27 -123 10
-92 59 50 123 46 144 -9 10 -25 8 -50 -11 -150 -13 -66 -22 -126 -19 -132 7
-20 42 -15 58 7 16 23 27 17 27 -16 0 -27 -48 -70 -88 -79 -40 -8 -80 10 -93
42 -8 22 -6 50 10 128 28 134 28 155 -3 155 -52 0 -74 -36 -103 -168 -14 -67
-31 -130 -38 -138 -6 -9 -26 -16 -45 -17 -35 -2 -35 -2 -32 36 l4 38 -39 -25
c-46 -30 -116 -56 -152 -56 -39 1 -108 35 -116 59 -6 20 -7 20 -43 -8 -76 -61
-163 -64 -178 -6 l-6 25 -30 -25 c-40 -34 -98 -50 -134 -38 -49 16 -52 47 -21
195 27 129 27 143 4 143 -24 0 -11 30 22 52 39 27 89 30 98 7 3 -8 -7 -77 -22
-153 -16 -75 -26 -145 -22 -154 9 -23 59 -22 88 2 18 15 28 44 49 145 26 120
26 126 9 126 -29 0 -24 38 5 46 19 4 26 15 31 45 8 45 25 66 61 75 39 10 48
-7 37 -65 l-10 -51 28 0 c17 0 29 -5 29 -13 0 -20 -21 -37 -46 -37 -19 0 -24
-8 -33 -52 -6 -29 -19 -87 -28 -129 -19 -90 -14 -109 25 -109 44 0 59 19 65
80 13 139 77 231 179 261 48 13 103 -5 117 -40 22 -53 -12 -111 -57 -97 -14 5
-17 15 -14 46 4 37 2 40 -20 40 -50 0 -97 -80 -105 -180 -5 -64 -4 -70 20 -94
18 -18 37 -26 60 -26 37 0 125 40 152 70 10 11 30 81 51 180 38 183 40 200 19
200 -37 0 -4 49 45 69 36 14 56 13 69 -3z m-763 -14 c26 -17 26 -51 0 -77 -30
-30 -49 -32 -77 -4 -43 43 25 116 77 81z m-206 -110 c84 -68 -34 -400 -160
-452 -43 -18 -64 5 -79 81 l-12 60 -39 -60 c-26 -41 -52 -67 -76 -78 -36 -18
-36 -18 -59 9 -42 49 -57 205 -29 306 6 19 3 23 -12 20 -27 -4 -24 21 6 43 30
23 80 33 99 20 11 -7 12 -22 2 -85 -6 -42 -11 -96 -11 -119 0 -51 17 -117 30
-117 18 0 61 102 85 202 25 109 41 131 85 126 24 -3 25 -6 20 -53 -8 -81 -6
-263 3 -272 5 -4 24 9 42 30 66 76 86 204 42 268 -25 37 -25 56 1 77 22 17 36
15 62 -6z"/>
</g>
</svg>
